<svg width="26" height="26" viewBox="0 0 26 26" fill="none" xmlns="http://www.w3.org/2000/svg">
<g id="cib:apple" clip-path="url(#clip0_1_1128)">
<path id="Vector" d="M7.66841 25.5133C7.1558 25.1723 6.70147 24.7509 6.32291 24.2653C5.90649 23.7641 5.52067 23.2383 5.16753 22.6907C4.33885 21.4767 3.68898 20.1498 3.23785 18.7509C2.69591 17.1259 2.43347 15.5683 2.43347 14.0449C2.43347 12.3435 2.80153 10.8583 3.52141 9.61025C4.05504 8.6348 4.83962 7.81964 5.79397 7.24913C6.71885 6.67467 7.78154 6.36029 8.8701 6.33913C9.25116 6.33913 9.66147 6.39438 10.097 6.5C10.4098 6.58856 10.7908 6.72831 11.2564 6.90219C11.8487 7.1305 12.1745 7.27025 12.285 7.30438C12.632 7.43113 12.9237 7.48638 13.1528 7.48638C13.3267 7.48638 13.572 7.43113 13.8507 7.34663C14.0075 7.29138 14.3033 7.19388 14.7266 7.01269C15.1458 6.85994 15.4757 6.72913 15.7382 6.63163C16.1403 6.513 16.5295 6.40331 16.8765 6.34806C17.2878 6.28322 17.7052 6.26605 18.1204 6.29688C18.84 6.34391 19.5487 6.49639 20.224 6.74944C21.3282 7.19388 22.2211 7.88775 22.8857 8.87413C22.6048 9.04727 22.3412 9.24697 22.0984 9.4705C21.57 9.93897 21.1198 10.4889 20.7651 11.0996C20.3014 11.9341 20.061 12.8741 20.0672 13.8288C20.0842 15.0012 20.3848 16.0339 20.9772 16.9268C21.4126 17.5886 21.9786 18.1545 22.6403 18.59C22.9792 18.8183 23.2708 18.9751 23.5503 19.0808C23.4195 19.487 23.2798 19.8803 23.1148 20.2703C22.7408 21.1448 22.2874 21.9833 21.7604 22.7752C21.2908 23.4569 20.9227 23.9647 20.6432 24.3027C20.2077 24.8186 19.7885 25.2127 19.3652 25.4873C18.8996 25.7961 18.3495 25.961 17.7905 25.961C17.412 25.9755 17.0335 25.9297 16.6693 25.8253C16.3565 25.7197 16.0469 25.6051 15.7422 25.4743C15.4255 25.3288 15.0988 25.2058 14.7648 25.1063C13.939 24.8942 13.0733 24.8928 12.2468 25.1022C11.908 25.1997 11.5822 25.3134 11.2605 25.4532C10.8079 25.6433 10.5073 25.7709 10.3334 25.8253C9.98647 25.9269 9.62653 25.9903 9.26253 26.0114C8.69947 26.0114 8.1746 25.8505 7.6546 25.5247L7.66841 25.5133ZM15.0947 5.51363C14.3585 5.88169 13.6557 6.0385 12.9578 5.98731C12.8481 5.2845 12.9578 4.56544 13.2495 3.77813C13.4978 3.11112 13.8647 2.49453 14.3325 1.95813C14.8265 1.39346 15.426 0.93062 16.0973 0.595564C16.8123 0.227502 17.494 0.0284394 18.1456 -0.000810623C18.2301 0.735314 18.1456 1.45925 17.875 2.24169C17.6246 2.93336 17.2584 3.57738 16.792 4.14619C16.3159 4.71163 15.7316 5.17627 15.0735 5.51281L15.0947 5.51363Z" fill="black"/>
</g>
<defs>
<clipPath id="clip0_1_1128">
<rect width="26" height="26" fill="white"/>
</clipPath>
</defs>
</svg>
