<svg width="22" height="23" viewBox="0 0 22 23" fill="none" xmlns="http://www.w3.org/2000/svg">
<g id="heart">
<path id="Vector" d="M19.1034 4.88211C18.6352 4.4137 18.0793 4.04212 17.4674 3.7886C16.8556 3.53509 16.1998 3.4046 15.5375 3.4046C14.8752 3.4046 14.2195 3.53509 13.6076 3.7886C12.9958 4.04212 12.4399 4.4137 11.9717 4.88211L11 5.85378L10.0284 4.88211C9.08264 3.93639 7.79997 3.40509 6.46253 3.40509C5.12508 3.40509 3.84241 3.93639 2.89669 4.88211C1.95098 5.82783 1.41968 7.11049 1.41968 8.44794C1.41968 9.78539 1.95098 11.0681 2.89669 12.0138L3.86836 12.9854L11 20.1171L18.1317 12.9854L19.1034 12.0138C19.5718 11.5456 19.9434 10.9897 20.1969 10.3779C20.4504 9.76601 20.5809 9.11022 20.5809 8.44794C20.5809 7.78566 20.4504 7.12987 20.1969 6.51803C19.9434 5.9062 19.5718 5.3503 19.1034 4.88211Z" stroke="black" stroke-width="2" stroke-linecap="round" stroke-linejoin="round"/>
</g>
</svg>
