<svg width="16" height="17" viewBox="0 0 16 17" fill="none" xmlns="http://www.w3.org/2000/svg">
<g id="location_on_white_24dp 1" clip-path="url(#clip0_1_949)">
<path id="Vector" d="M8.00001 1.83334C5.42001 1.83334 3.33334 3.92001 3.33334 6.50001C3.33334 10 8.00001 15.1667 8.00001 15.1667C8.00001 15.1667 12.6667 10 12.6667 6.50001C12.6667 3.92001 10.58 1.83334 8.00001 1.83334ZM4.66668 6.50001C4.66668 4.66001 6.16001 3.16668 8.00001 3.16668C9.84001 3.16668 11.3333 4.66001 11.3333 6.50001C11.3333 8.42001 9.41334 11.2933 8.00001 13.0867C6.61334 11.3067 4.66668 8.40001 4.66668 6.50001Z" fill="black"/>
<path id="Vector_2" d="M8.00001 8.16668C8.92048 8.16668 9.66668 7.42048 9.66668 6.50001C9.66668 5.57954 8.92048 4.83334 8.00001 4.83334C7.07954 4.83334 6.33334 5.57954 6.33334 6.50001C6.33334 7.42048 7.07954 8.16668 8.00001 8.16668Z" fill="black"/>
</g>
<defs>
<clipPath id="clip0_1_949">
<rect width="16" height="16" fill="white" transform="translate(0 0.5)"/>
</clipPath>
</defs>
</svg>
