<svg width="87" height="87" viewBox="0 0 87 87" fill="none" xmlns="http://www.w3.org/2000/svg">
<g id="Group 1000003121">
<circle id="Ellipse 186" cx="43.5" cy="43.5" r="43.5" fill="#436B49"/>
<circle id="Ellipse 185" cx="43.0561" cy="43.9438" r="38.2551" fill="#436B49" stroke="white" stroke-width="2.5"/>
<path id="Vector 1" d="M17.7551 50.0098C25.8802 41.1746 34.0546 55.6327 34.0546 61.2551V47.1989M34.0546 47.1989V38.7653V27.5204V47.1989ZM34.0546 47.1989H45.479V29.9297M45.479 29.9297V58.6164M45.479 29.9297C46.193 29.1265 53.5056 25.9136 58.3807 29.9297C63.2558 33.9457 64.0683 41.1746 62.6156 47.1989C61.1629 53.2233 53.1105 58.524 53.1105 58.524M45.479 58.6164V61.1145M45.479 58.6164C45.479 58.6164 50.2544 58.524 53.1105 58.524M53.1105 58.524C53.1105 58.524 67.4521 58.6744 70.3082 58.6744" stroke="white" stroke-width="5"/>
</g>
</svg>
