<svg width="16" height="18" viewBox="0 0 16 18" fill="none" xmlns="http://www.w3.org/2000/svg">
<g id="Shield Done">
<path id="Stroke 1" fill-rule="evenodd" clip-rule="evenodd" d="M13.7208 3.26989C14.085 3.39739 14.3283 3.74072 14.3283 4.12655V9.77072C14.3283 11.3482 13.755 12.8541 12.7425 14.0207C12.2333 14.6082 11.5891 15.0657 10.905 15.4357L7.93996 17.0374L4.96996 15.4349C4.28496 15.0649 3.63996 14.6082 3.12996 14.0199C2.11663 12.8532 1.54163 11.3466 1.54163 9.76739V4.12655C1.54163 3.74072 1.78496 3.39739 2.14913 3.26989L7.63413 1.34239C7.82913 1.27405 8.04163 1.27405 8.23579 1.34239L13.7208 3.26989Z" stroke="black" stroke-width="1.5" stroke-linecap="round" stroke-linejoin="round"/>
<path id="Stroke 3" opacity="0.4" d="M5.76868 8.93152L7.34534 10.509L10.5937 7.26068" stroke="black" stroke-width="1.5" stroke-linecap="round" stroke-linejoin="round"/>
</g>
</svg>
