<svg width="16" height="16" viewBox="0 0 16 16" fill="none" xmlns="http://www.w3.org/2000/svg">
<g clip-path="url(#clip0_1_1263)">
<path d="M7.99334 1.33334C4.31334 1.33334 1.33334 4.32001 1.33334 8.00001C1.33334 11.68 4.31334 14.6667 7.99334 14.6667C11.68 14.6667 14.6667 11.68 14.6667 8.00001C14.6667 4.32001 11.68 1.33334 7.99334 1.33334ZM8.00001 13.3333C5.05334 13.3333 2.66668 10.9467 2.66668 8.00001C2.66668 5.05334 5.05334 2.66668 8.00001 2.66668C10.9467 2.66668 13.3333 5.05334 13.3333 8.00001C13.3333 10.9467 10.9467 13.3333 8.00001 13.3333ZM7.85334 4.66668H7.81334C7.54668 4.66668 7.33334 4.88001 7.33334 5.14668V8.29334C7.33334 8.52668 7.45334 8.74668 7.66001 8.86668L10.4267 10.5267C10.6533 10.66 10.9467 10.5933 11.08 10.3667C11.22 10.14 11.1467 9.84001 10.9133 9.70668L8.33334 8.17334V5.14668C8.33334 4.88001 8.12001 4.66668 7.85334 4.66668Z" fill="white"/>
</g>
<defs>
<clipPath id="clip0_1_1263">
<rect width="16" height="16" fill="white"/>
</clipPath>
</defs>
</svg>
